<svg width="128" height="42" viewBox="0 0 128 42" fill="none" xmlns="http://www.w3.org/2000/svg">
<g clip-path="url(#clip0_75_6916)">
<path d="M35.0065 13.7912C35.3135 14.1 35.7048 14.3103 36.1308 14.3954C36.5567 14.4806 36.9982 14.4369 37.3995 14.2698C37.8008 14.1028 38.1437 13.8198 38.385 13.4567C38.6263 13.0936 38.7551 12.6668 38.7551 12.2302C38.7551 11.7936 38.6263 11.3667 38.385 11.0036C38.1437 10.6406 37.8008 10.3576 37.3995 10.1905C36.9982 10.0234 36.5567 9.9797 36.1308 10.0649C35.7048 10.1501 35.3135 10.3604 35.0065 10.6692C34.5946 11.0832 34.3633 11.6447 34.3633 12.2302C34.3633 12.8157 34.5946 13.3772 35.0065 13.7912Z" fill="#FF5678"/>
<path d="M26.4419 17.9602L12.8377 31.6376C12.5486 31.9283 12.3192 32.2733 12.1627 32.6532C12.0062 33.033 11.9256 33.44 11.9256 33.8512C11.9256 34.2623 12.006 34.6694 12.1625 35.0492C12.3189 35.429 12.5483 35.7742 12.8375 36.0649C13.1266 36.3557 13.4698 36.5862 13.8476 36.7436C14.2254 36.901 14.6303 36.9819 15.0392 36.982C15.4481 36.982 15.8531 36.901 16.2309 36.7437C16.6087 36.5865 16.952 36.3559 17.2411 36.0652L22.9911 30.2843C23.2234 30.1103 23.5102 30.0261 23.7992 30.0471C24.0882 30.0679 24.36 30.1927 24.5652 30.3983C24.7942 30.6274 24.9241 30.9381 24.9266 31.263C24.929 31.5878 24.8037 31.9006 24.578 32.133L20.369 36.3647C19.785 36.9518 19.457 37.7481 19.457 38.5784C19.4571 39.4087 19.7853 40.2049 20.3692 40.792C20.9532 41.3791 21.7453 41.7088 22.5711 41.7088C23.397 41.7087 24.189 41.3789 24.7729 40.7917L36.5052 28.9958C36.6176 28.8827 36.7511 28.7931 36.8981 28.7319C37.045 28.6706 37.2024 28.6392 37.3615 28.6392C37.5205 28.6392 37.6779 28.6706 37.8249 28.7319C37.9717 28.7931 38.1053 28.8827 38.2177 28.9958C38.3302 29.1088 38.4193 29.243 38.4802 29.3907C38.5411 29.5384 38.5724 29.6968 38.5724 29.8567C38.5724 30.0165 38.5411 30.1748 38.4802 30.3225C38.4193 30.4703 38.3302 30.6045 38.2177 30.7175L37.4932 31.4428C36.9093 32.03 36.5813 32.8262 36.5814 33.6566C36.5814 34.4869 36.9095 35.2831 37.4936 35.8702C38.0775 36.4572 38.8696 36.787 39.6955 36.7869C40.5213 36.7869 41.3132 36.457 41.8972 35.8699L46.8179 30.9227C47.4019 30.3357 47.73 29.5394 47.7301 28.7091C47.7301 27.8788 47.4021 27.0825 46.8182 26.4954C46.2342 25.9082 45.4423 25.5784 44.6164 25.5783C43.7905 25.5783 42.9985 25.908 42.4145 26.4951L41.7005 27.2155C41.4733 27.4437 41.1652 27.572 40.8439 27.572C40.5227 27.5719 40.2147 27.4436 39.9876 27.2151C39.7604 26.9868 39.633 26.677 39.633 26.3541C39.633 26.0311 39.7607 25.7214 39.9879 25.493L47.3431 18.102C47.9271 17.5149 48.2551 16.7185 48.255 15.8883C48.2549 15.0579 47.9268 14.2617 47.3429 13.6747C46.7588 13.0875 45.9668 12.7578 45.141 12.7579C44.3151 12.7579 43.5231 13.0878 42.9391 13.6749L28.0607 28.6304C27.8295 28.8573 27.5186 28.9834 27.1955 28.9811C26.8724 28.9788 26.5632 28.8483 26.3353 28.618C26.1308 28.4114 26.007 28.1378 25.9864 27.8471C25.9658 27.5564 26.0498 27.2679 26.2231 27.0343L35.6869 17.5208C36.2583 16.9311 36.5757 16.1389 36.5703 15.3155C36.5649 14.4923 36.2373 13.7042 35.6582 13.1221C35.0791 12.5399 34.2954 12.2105 33.4765 12.2051C32.6576 12.1997 31.8695 12.5187 31.2829 13.0932L29.4925 14.8932C29.2624 15.0296 28.9938 15.0854 28.7287 15.0519C28.4637 15.0185 28.2171 14.8977 28.0276 14.7084C27.7985 14.4793 27.6686 14.1686 27.6662 13.8437C27.6638 13.5188 27.7891 13.2061 28.0147 12.9737L35.074 5.87593C35.6454 5.28616 35.9627 4.49386 35.9573 3.67061C35.952 2.84727 35.6242 2.05924 35.0453 1.47709C34.4662 0.894934 33.6823 0.565512 32.8635 0.560126C32.0446 0.554739 31.2566 0.873817 30.67 1.44827L18.9352 13.2442C18.7081 13.4725 18.4 13.6008 18.0788 13.6007C17.7575 13.6006 17.4496 13.4723 17.2224 13.2439C16.9953 13.0155 16.8677 12.7057 16.8678 12.3828C16.8679 12.0599 16.9956 11.7501 17.2227 11.5218L20.5185 8.21077C20.8164 7.92214 21.054 7.57673 21.2175 7.19464C21.3811 6.81263 21.4672 6.40165 21.471 5.9857C21.4749 5.56985 21.3961 5.15732 21.2396 4.77233C21.083 4.38733 20.8518 4.03756 20.5592 3.74345C20.2667 3.44934 19.9188 3.21679 19.5359 3.05939C19.1529 2.90198 18.7426 2.8229 18.3289 2.82675C17.9153 2.83051 17.5065 2.9172 17.1265 3.08162C16.7465 3.24603 16.4029 3.48491 16.1158 3.7844L8.62563 11.3142C8.04168 11.9012 7.71354 12.6975 7.71346 13.5278C7.71346 13.9388 7.79391 14.346 7.95037 14.7258C8.10683 15.1056 8.33622 15.4508 8.62537 15.7415C8.91444 16.0322 9.25771 16.2628 9.63552 16.4201C10.0133 16.5775 10.4182 16.6585 10.8271 16.6586C11.6529 16.6586 12.445 16.3288 13.029 15.7418L13.7419 15.0251C13.969 14.7967 14.277 14.6684 14.5982 14.6683C14.9194 14.6682 15.2276 14.7965 15.4547 15.0248C15.6819 15.2531 15.8095 15.5629 15.8096 15.8858C15.8096 16.2087 15.6821 16.5185 15.455 16.7468L8.09974 24.138C7.52836 24.7278 7.21099 25.5201 7.21638 26.3433C7.22176 27.1666 7.54939 27.9546 8.12846 28.5368C8.70754 29.1189 9.49129 29.4483 10.3102 29.4538C11.1291 29.4592 11.9171 29.1401 12.5037 28.5656L24.5314 16.4751C24.7627 16.2482 25.0736 16.1223 25.3968 16.1247C25.7199 16.1271 26.029 16.2577 26.2568 16.488C26.4452 16.6783 26.5655 16.926 26.599 17.1924C26.6325 17.4588 26.5773 17.7288 26.4419 17.9602Z" fill="#FF5678"/>
</g>
<path d="M71.4967 11.264L64.2167 11.656L62.7047 15.436L60.6327 15.156L61.2767 9.64H75.4727L76.1447 11.124L66.0087 26.86L64.0767 28.792L72.7007 28.232L74.2687 23.892L76.3967 24.312L75.7527 30.5H60.3527L59.4847 29.016L69.8447 13.196L71.4967 11.264ZM85.5323 30.808C83.0683 30.808 81.2296 30.0893 80.0163 28.652C78.8216 27.196 78.2243 25.2173 78.2243 22.716C78.2243 21.036 78.5323 19.58 79.1483 18.348C79.783 17.116 80.6696 16.1733 81.8083 15.52C82.947 14.8667 84.263 14.54 85.7563 14.54C87.623 14.54 89.0603 15.0347 90.0683 16.024C91.0763 16.9947 91.599 18.3853 91.6363 20.196C91.6363 21.428 91.5616 22.3427 91.4123 22.94H82.3123C82.387 24.6387 82.7883 25.964 83.5163 26.916C84.2443 27.8493 85.2803 28.316 86.6243 28.316C87.3523 28.316 88.099 28.1947 88.8643 27.952C89.6483 27.7093 90.2643 27.42 90.7123 27.084L91.4123 28.624C90.9083 29.1653 90.087 29.6693 88.9483 30.136C87.8283 30.584 86.6896 30.808 85.5323 30.808ZM87.7163 21.26C87.7536 20.7373 87.7723 20.336 87.7723 20.056C87.7723 17.5733 86.9416 16.332 85.2803 16.332C84.3656 16.332 83.6563 16.696 83.1523 17.424C82.6483 18.152 82.3683 19.4307 82.3123 21.26H87.7163ZM92.6108 8.156L97.7348 7.54H97.7908L98.5748 8.072V16.332C99.0788 15.828 99.6948 15.408 100.423 15.072C101.17 14.7173 101.972 14.54 102.831 14.54C104.623 14.54 106.079 15.1747 107.199 16.444C108.338 17.6947 108.907 19.6173 108.907 22.212C108.907 23.8173 108.571 25.2733 107.899 26.58C107.227 27.8867 106.256 28.9227 104.987 29.688C103.736 30.4347 102.28 30.808 100.619 30.808C99.1442 30.808 97.8655 30.6867 96.7828 30.444C95.7002 30.1827 95.0095 29.9493 94.7108 29.744V9.948L92.6108 9.612V8.156ZM101.347 17.004C100.787 17.004 100.255 17.1347 99.7508 17.396C99.2655 17.6387 98.8735 17.9187 98.5748 18.236V28.456C98.6868 28.6613 98.9482 28.8293 99.3588 28.96C99.7695 29.0907 100.236 29.156 100.759 29.156C101.954 29.156 102.906 28.6053 103.615 27.504C104.343 26.384 104.707 24.732 104.707 22.548C104.707 20.6627 104.399 19.272 103.783 18.376C103.167 17.4613 102.355 17.004 101.347 17.004ZM109.919 8.156L115.043 7.54H115.099L115.883 8.072V16.332C116.387 15.828 117.003 15.408 117.731 15.072C118.478 14.7173 119.281 14.54 120.139 14.54C121.931 14.54 123.387 15.1747 124.507 16.444C125.646 17.6947 126.215 19.6173 126.215 22.212C126.215 23.8173 125.879 25.2733 125.207 26.58C124.535 27.8867 123.565 28.9227 122.295 29.688C121.045 30.4347 119.589 30.808 117.927 30.808C116.453 30.808 115.174 30.6867 114.091 30.444C113.009 30.1827 112.318 29.9493 112.019 29.744V9.948L109.919 9.612V8.156ZM118.655 17.004C118.095 17.004 117.563 17.1347 117.059 17.396C116.574 17.6387 116.182 17.9187 115.883 18.236V28.456C115.995 28.6613 116.257 28.8293 116.667 28.96C117.078 29.0907 117.545 29.156 118.067 29.156C119.262 29.156 120.214 28.6053 120.923 27.504C121.651 26.384 122.015 24.732 122.015 22.548C122.015 20.6627 121.707 19.272 121.091 18.376C120.475 17.4613 119.663 17.004 118.655 17.004Z" fill="#FF5678"/>
<defs>
<clipPath id="clip0_75_6916">
<rect width="54.8688" height="59.6924" fill="white" transform="translate(0 -8.84619)"/>
</clipPath>
</defs>
</svg>
