<svg width="29" height="28" viewBox="0 0 29 28" fill="none" xmlns="http://www.w3.org/2000/svg">
<path d="M28.0627 10.1154L19.3691 8.88355L15.4828 1.20214C15.3766 0.991826 15.202 0.821573 14.9863 0.718086C14.4453 0.457699 13.7879 0.674688 13.5174 1.20214L9.63108 8.88355L0.937449 10.1154C0.697766 10.1488 0.478627 10.2589 0.310849 10.4258C0.108015 10.6291 -0.00375586 10.9025 9.63727e-05 11.1861C0.0039486 11.4697 0.123109 11.7401 0.331393 11.9381L6.62135 17.917L5.13532 26.3595C5.10047 26.5559 5.12276 26.7579 5.19967 26.9426C5.27657 27.1272 5.405 27.2872 5.57041 27.4043C5.73581 27.5214 5.93157 27.591 6.13548 27.6052C6.33939 27.6194 6.5433 27.5776 6.72408 27.4845L14.5001 23.4986L22.2761 27.4845C22.4884 27.5947 22.7349 27.6314 22.9711 27.5913C23.5669 27.4912 23.9675 26.9404 23.8648 26.3595L22.3788 17.917L28.6687 11.9381C28.8399 11.7745 28.9529 11.5609 28.9872 11.3272C29.0796 10.743 28.6619 10.2022 28.0627 10.1154Z" fill="#FFC107"/>
</svg>
